<svg width="21" height="21" viewBox="0 0 21 21" fill="none" xmlns="http://www.w3.org/2000/svg">
<path d="M11.7579 5.758L9.75794 5.758L9.75794 9.758L5.75794 9.758L5.75794 11.758L9.75794 11.758L9.75794 15.758L11.7579 15.758L11.7579 11.758L15.7579 11.758L15.7579 9.758L11.7579 9.758L11.7579 5.758ZM10.7579 0.757995C5.23794 0.757996 0.757935 5.238 0.757935 10.758C0.757935 16.278 5.23794 20.758 10.7579 20.758C16.2779 20.758 20.7579 16.278 20.7579 10.758C20.7579 5.238 16.2779 0.757995 10.7579 0.757995ZM10.7579 18.758C6.34794 18.758 2.75793 15.168 2.75793 10.758C2.75793 6.348 6.34794 2.758 10.7579 2.758C15.1679 2.758 18.7579 6.348 18.7579 10.758C18.7579 15.168 15.1679 18.758 10.7579 18.758Z" fill="#1E90FF"/>
</svg>
