<svg width="20" height="20" viewBox="0 0 20 20" fill="none" xmlns="http://www.w3.org/2000/svg">
<path d="M10 17C10.946 17 11.81 16.897 12.598 16.719L10.841 14.962C10.568 14.983 10.291 15 10 15C4.64901 15 2.57601 11.154 2.07401 10C2.45096 9.15881 2.96006 8.38334 3.58201 7.703L2.18401 6.305C0.646009 7.972 0.0630094 9.651 0.0520094 9.684C-0.0169703 9.88936 -0.0169703 10.1116 0.0520094 10.317C0.0730094 10.383 2.36701 17 10 17ZM10 3C8.16301 3 6.65401 3.396 5.39601 3.981L1.70701 0.292999L0.293009 1.707L18.293 19.707L19.707 18.293L16.388 14.974C19.002 13.023 19.935 10.359 19.949 10.317C20.018 10.1116 20.018 9.88936 19.949 9.684C19.927 9.617 17.633 3 10 3ZM14.972 13.558L12.692 11.278C12.882 10.888 13 10.459 13 10C13 8.359 11.641 7 10 7C9.54101 7 9.11201 7.118 8.72301 7.309L6.91501 5.501C7.90753 5.16041 8.95072 4.991 10 5C15.351 5 17.424 8.846 17.926 10C17.624 10.692 16.76 12.342 14.972 13.558Z" fill="black"/>
</svg>
