<svg width="18" height="18" viewBox="0 0 18 18" fill="none" xmlns="http://www.w3.org/2000/svg">
<path d="M9.44 2.02001L11.26 0.200012L17.62 6.55001L15.79 8.37001C15.266 8.03152 14.6419 7.88264 14.0215 7.94814C13.4011 8.01363 12.8218 8.28956 12.38 8.73001L11.63 9.48001C10.71 10.41 10.59 11.83 11.28 12.89L9.45 14.71L7.04 12.3L4.24 15.09C3.82 15.51 0.860001 17.8 0.440001 17.38C0.0200006 16.96 2.3 13.99 2.72 13.57L5.51 10.78L3.1 8.36001L4.93 6.54001C5.98 7.23001 7.41 7.11001 8.33 6.18001L9.08 5.43001C10.01 4.51001 10.13 3.08001 9.44 2.02001Z" fill="#9800E0"/>
</svg>
